<mxfile host="app.diagrams.net" modified="2022-03-02T03:19:39.446Z" agent="5.0 (Windows NT 10.0; WOW64) AppleWebKit/537.36 (KHTML, like Gecko) Chrome/86.0.4240.198 Safari/537.36" etag="uFLPCrdnJsNdyt0olDZ-" version="16.6.4" type="github">
  <diagram name="Page-1" id="13e1069c-82ec-6db2-03f1-153e76fe0fe0">
    <mxGraphModel dx="1038" dy="519" grid="1" gridSize="10" guides="1" tooltips="1" connect="1" arrows="1" fold="1" page="1" pageScale="1" pageWidth="1100" pageHeight="850" background="none" math="0" shadow="0">
      <root>
        <mxCell id="0" />
        <mxCell id="1" parent="0" />
        <mxCell id="-loWOBMDPaf_zWbP4MA2-8" value="&lt;span style=&quot;font-size: 11px ; text-align: left&quot;&gt;PowerManager.WakeLock&lt;/span&gt;" style="shape=umlLifeline;perimeter=lifelinePerimeter;whiteSpace=wrap;html=1;container=1;collapsible=0;recursiveResize=0;outlineConnect=0;rounded=1;shadow=0;comic=0;labelBackgroundColor=none;strokeWidth=1;fontFamily=Verdana;fontSize=12;align=center;" parent="1" vertex="1">
          <mxGeometry x="680" y="80" width="100" height="580" as="geometry" />
        </mxCell>
        <mxCell id="-loWOBMDPaf_zWbP4MA2-15" value="" style="html=1;points=[];perimeter=orthogonalPerimeter;rounded=0;shadow=0;comic=0;labelBackgroundColor=none;strokeWidth=1;fontFamily=Verdana;fontSize=12;align=center;" parent="1" vertex="1">
          <mxGeometry x="725" y="280" width="10" height="80" as="geometry" />
        </mxCell>
        <mxCell id="-loWOBMDPaf_zWbP4MA2-1" value="NfcAdapterService" style="shape=umlLifeline;perimeter=lifelinePerimeter;whiteSpace=wrap;html=1;container=1;collapsible=0;recursiveResize=0;outlineConnect=0;rounded=1;shadow=0;comic=0;labelBackgroundColor=none;strokeWidth=1;fontFamily=Verdana;fontSize=12;align=center;" parent="1" vertex="1">
          <mxGeometry x="240" y="80" width="100" height="580" as="geometry" />
        </mxCell>
        <mxCell id="-loWOBMDPaf_zWbP4MA2-2" value="" style="html=1;points=[];perimeter=orthogonalPerimeter;rounded=0;shadow=0;comic=0;labelBackgroundColor=none;strokeWidth=1;fontFamily=Verdana;fontSize=12;align=center;" parent="-loWOBMDPaf_zWbP4MA2-1" vertex="1">
          <mxGeometry x="45" y="100" width="10" height="230" as="geometry" />
        </mxCell>
        <mxCell id="-loWOBMDPaf_zWbP4MA2-3" value="EnableDisableTask" style="shape=umlLifeline;perimeter=lifelinePerimeter;whiteSpace=wrap;html=1;container=1;collapsible=0;recursiveResize=0;outlineConnect=0;rounded=1;shadow=0;comic=0;labelBackgroundColor=none;strokeWidth=1;fontFamily=Verdana;fontSize=12;align=center;" parent="1" vertex="1">
          <mxGeometry x="400" y="80" width="100" height="580" as="geometry" />
        </mxCell>
        <mxCell id="-loWOBMDPaf_zWbP4MA2-4" value="" style="html=1;points=[];perimeter=orthogonalPerimeter;rounded=0;shadow=0;comic=0;labelBackgroundColor=none;strokeWidth=1;fontFamily=Verdana;fontSize=12;align=center;" parent="-loWOBMDPaf_zWbP4MA2-3" vertex="1">
          <mxGeometry x="45" y="120" width="10" height="450" as="geometry" />
        </mxCell>
        <mxCell id="-loWOBMDPaf_zWbP4MA2-5" value="" style="html=1;points=[];perimeter=orthogonalPerimeter;" parent="-loWOBMDPaf_zWbP4MA2-3" vertex="1">
          <mxGeometry x="50" y="160" width="10" height="400" as="geometry" />
        </mxCell>
        <mxCell id="-loWOBMDPaf_zWbP4MA2-6" value="enableInternal" style="edgeStyle=orthogonalEdgeStyle;html=1;align=left;spacingLeft=2;endArrow=block;rounded=0;entryX=1;entryY=0;" parent="-loWOBMDPaf_zWbP4MA2-3" target="-loWOBMDPaf_zWbP4MA2-5" edge="1">
          <mxGeometry relative="1" as="geometry">
            <mxPoint x="55" y="140" as="sourcePoint" />
            <Array as="points">
              <mxPoint x="85" y="140" />
            </Array>
          </mxGeometry>
        </mxCell>
        <mxCell id="-loWOBMDPaf_zWbP4MA2-40" value="启动watchDog线程" style="html=1;verticalAlign=bottom;endArrow=block;rounded=0;" parent="-loWOBMDPaf_zWbP4MA2-3" target="-loWOBMDPaf_zWbP4MA2-14" edge="1">
          <mxGeometry width="80" relative="1" as="geometry">
            <mxPoint x="60" y="180" as="sourcePoint" />
            <mxPoint x="180" y="180" as="targetPoint" />
          </mxGeometry>
        </mxCell>
        <mxCell id="-loWOBMDPaf_zWbP4MA2-67" value="" style="html=1;points=[];perimeter=orthogonalPerimeter;fontSize=11;" parent="-loWOBMDPaf_zWbP4MA2-3" vertex="1">
          <mxGeometry x="55" y="450" width="10" height="40" as="geometry" />
        </mxCell>
        <mxCell id="-loWOBMDPaf_zWbP4MA2-68" value="initSoundPool" style="edgeStyle=orthogonalEdgeStyle;html=1;align=left;spacingLeft=2;endArrow=block;rounded=0;entryX=1;entryY=0;fontSize=11;" parent="-loWOBMDPaf_zWbP4MA2-3" target="-loWOBMDPaf_zWbP4MA2-67" edge="1">
          <mxGeometry relative="1" as="geometry">
            <mxPoint x="60" y="430" as="sourcePoint" />
            <Array as="points">
              <mxPoint x="90" y="430" />
            </Array>
          </mxGeometry>
        </mxCell>
        <mxCell id="-loWOBMDPaf_zWbP4MA2-69" value="" style="html=1;points=[];perimeter=orthogonalPerimeter;fontSize=11;" parent="-loWOBMDPaf_zWbP4MA2-3" vertex="1">
          <mxGeometry x="55" y="520" width="10" height="30" as="geometry" />
        </mxCell>
        <mxCell id="-loWOBMDPaf_zWbP4MA2-70" value="applyRouting" style="edgeStyle=orthogonalEdgeStyle;html=1;align=left;spacingLeft=2;endArrow=block;rounded=0;entryX=1;entryY=0;fontSize=11;" parent="-loWOBMDPaf_zWbP4MA2-3" target="-loWOBMDPaf_zWbP4MA2-69" edge="1">
          <mxGeometry relative="1" as="geometry">
            <mxPoint x="60" y="500" as="sourcePoint" />
            <Array as="points">
              <mxPoint x="90" y="500" />
            </Array>
          </mxGeometry>
        </mxCell>
        <mxCell id="-loWOBMDPaf_zWbP4MA2-7" value="WatchDogThread" style="shape=umlLifeline;perimeter=lifelinePerimeter;whiteSpace=wrap;html=1;container=1;collapsible=0;recursiveResize=0;outlineConnect=0;rounded=1;shadow=0;comic=0;labelBackgroundColor=none;strokeWidth=1;fontFamily=Verdana;fontSize=12;align=center;" parent="1" vertex="1">
          <mxGeometry x="540" y="80" width="100" height="580" as="geometry" />
        </mxCell>
        <mxCell id="-loWOBMDPaf_zWbP4MA2-9" value="DeviceHost" style="shape=umlLifeline;perimeter=lifelinePerimeter;whiteSpace=wrap;html=1;container=1;collapsible=0;recursiveResize=0;outlineConnect=0;rounded=1;shadow=0;comic=0;labelBackgroundColor=none;strokeWidth=1;fontFamily=Verdana;fontSize=12;align=center;" parent="1" vertex="1">
          <mxGeometry x="820" y="80" width="100" height="580" as="geometry" />
        </mxCell>
        <mxCell id="-loWOBMDPaf_zWbP4MA2-43" value="" style="html=1;points=[];perimeter=orthogonalPerimeter;rounded=0;shadow=0;comic=0;labelBackgroundColor=none;strokeWidth=1;fontFamily=Verdana;fontSize=12;align=center;" parent="-loWOBMDPaf_zWbP4MA2-9" vertex="1">
          <mxGeometry x="45" y="230" width="10" height="20" as="geometry" />
        </mxCell>
        <mxCell id="-loWOBMDPaf_zWbP4MA2-10" value="CardEmulationManager" style="shape=umlLifeline;perimeter=lifelinePerimeter;whiteSpace=wrap;html=1;container=1;collapsible=0;recursiveResize=0;outlineConnect=0;rounded=1;shadow=0;comic=0;labelBackgroundColor=none;strokeWidth=1;fontFamily=Verdana;fontSize=12;align=center;" parent="1" vertex="1">
          <mxGeometry x="960" y="80" width="100" height="580" as="geometry" />
        </mxCell>
        <mxCell id="-loWOBMDPaf_zWbP4MA2-49" value="" style="html=1;points=[];perimeter=orthogonalPerimeter;rounded=0;shadow=0;comic=0;labelBackgroundColor=none;strokeWidth=1;fontFamily=Verdana;fontSize=12;align=center;" parent="-loWOBMDPaf_zWbP4MA2-10" vertex="1">
          <mxGeometry x="45" y="320" width="10" height="50" as="geometry" />
        </mxCell>
        <mxCell id="-loWOBMDPaf_zWbP4MA2-66" value="enableDisable" style="html=1;verticalAlign=bottom;endArrow=block;rounded=0;entryX=0.033;entryY=0.201;entryDx=0;entryDy=0;entryPerimeter=0;" parent="-loWOBMDPaf_zWbP4MA2-10" target="-loWOBMDPaf_zWbP4MA2-52" edge="1">
          <mxGeometry width="80" relative="1" as="geometry">
            <mxPoint x="-500" y="380" as="sourcePoint" />
            <mxPoint x="180" y="380" as="targetPoint" />
          </mxGeometry>
        </mxCell>
        <mxCell id="-loWOBMDPaf_zWbP4MA2-11" value="NfcAdapter" style="shape=umlLifeline;perimeter=lifelinePerimeter;whiteSpace=wrap;html=1;container=1;collapsible=0;recursiveResize=0;outlineConnect=0;rounded=1;shadow=0;comic=0;labelBackgroundColor=none;strokeWidth=1;fontFamily=Verdana;fontSize=12;align=center;" parent="1" vertex="1">
          <mxGeometry x="100" y="80" width="100" height="580" as="geometry" />
        </mxCell>
        <mxCell id="-loWOBMDPaf_zWbP4MA2-12" value="" style="html=1;points=[];perimeter=orthogonalPerimeter;rounded=0;shadow=0;comic=0;labelBackgroundColor=none;strokeWidth=1;fontFamily=Verdana;fontSize=12;align=center;" parent="-loWOBMDPaf_zWbP4MA2-11" vertex="1">
          <mxGeometry x="45" y="100" width="10" height="440" as="geometry" />
        </mxCell>
        <mxCell id="-loWOBMDPaf_zWbP4MA2-13" value="enable" style="html=1;verticalAlign=bottom;endArrow=block;entryX=0;entryY=0;labelBackgroundColor=none;fontFamily=Verdana;fontSize=12;edgeStyle=elbowEdgeStyle;elbow=vertical;" parent="-loWOBMDPaf_zWbP4MA2-11" edge="1">
          <mxGeometry relative="1" as="geometry">
            <mxPoint x="-85" y="100" as="sourcePoint" />
            <mxPoint x="45" y="100" as="targetPoint" />
          </mxGeometry>
        </mxCell>
        <mxCell id="-loWOBMDPaf_zWbP4MA2-14" value="" style="html=1;points=[];perimeter=orthogonalPerimeter;rounded=0;shadow=0;comic=0;labelBackgroundColor=none;strokeWidth=1;fontFamily=Verdana;fontSize=12;align=center;" parent="1" vertex="1">
          <mxGeometry x="585" y="250" width="10" height="130" as="geometry" />
        </mxCell>
        <mxCell id="-loWOBMDPaf_zWbP4MA2-26" value="enable" style="html=1;verticalAlign=bottom;endArrow=block;entryX=0;entryY=0;labelBackgroundColor=none;fontFamily=Verdana;fontSize=12;edgeStyle=elbowEdgeStyle;elbow=vertical;" parent="1" edge="1">
          <mxGeometry relative="1" as="geometry">
            <mxPoint x="155" y="194" as="sourcePoint" />
            <mxPoint x="285" y="194" as="targetPoint" />
          </mxGeometry>
        </mxCell>
        <mxCell id="-loWOBMDPaf_zWbP4MA2-27" value="execute" style="html=1;verticalAlign=bottom;endArrow=block;entryX=0;entryY=0;labelBackgroundColor=none;fontFamily=Verdana;fontSize=12;edgeStyle=elbowEdgeStyle;elbow=vertical;" parent="1" source="-loWOBMDPaf_zWbP4MA2-2" target="-loWOBMDPaf_zWbP4MA2-4" edge="1">
          <mxGeometry relative="1" as="geometry">
            <mxPoint x="370" y="200" as="sourcePoint" />
          </mxGeometry>
        </mxCell>
        <mxCell id="-loWOBMDPaf_zWbP4MA2-33" value="Note" style="shape=note;whiteSpace=wrap;html=1;size=14;verticalAlign=top;align=left;spacingTop=-6;rounded=0;shadow=0;comic=0;labelBackgroundColor=none;strokeWidth=1;fontFamily=Verdana;fontSize=12" parent="1" vertex="1">
          <mxGeometry x="100" y="30" width="100" height="35" as="geometry" />
        </mxCell>
        <mxCell id="-loWOBMDPaf_zWbP4MA2-34" value="INfcAdapter.Stub" style="shape=note;whiteSpace=wrap;html=1;size=14;verticalAlign=top;align=left;spacingTop=-6;rounded=0;shadow=0;comic=0;labelBackgroundColor=none;strokeWidth=1;fontFamily=Verdana;fontSize=12" parent="1" vertex="1">
          <mxGeometry x="240" y="30" width="100" height="35" as="geometry" />
        </mxCell>
        <mxCell id="-loWOBMDPaf_zWbP4MA2-35" value="异步任务：管理涉及打开/关闭NFC控制器的任务" style="shape=note;whiteSpace=wrap;html=1;size=14;verticalAlign=top;align=left;spacingTop=-6;rounded=0;shadow=0;comic=0;labelBackgroundColor=none;strokeWidth=1;fontFamily=Verdana;fontSize=12" parent="1" vertex="1">
          <mxGeometry x="400" y="30" width="100" height="35" as="geometry" />
        </mxCell>
        <mxCell id="-loWOBMDPaf_zWbP4MA2-36" value="监视NFC底层操作是否超时" style="shape=note;whiteSpace=wrap;html=1;size=14;verticalAlign=top;align=left;spacingTop=-6;rounded=0;shadow=0;comic=0;labelBackgroundColor=none;strokeWidth=1;fontFamily=Verdana;fontSize=12" parent="1" vertex="1">
          <mxGeometry x="540" y="30" width="100" height="35" as="geometry" />
        </mxCell>
        <mxCell id="-loWOBMDPaf_zWbP4MA2-38" value="&lt;span style=&quot;font-size: 11px&quot;&gt;初始化NFC底层模块&lt;/span&gt;" style="shape=note;whiteSpace=wrap;html=1;size=14;verticalAlign=top;align=left;spacingTop=-6;rounded=0;shadow=0;comic=0;labelBackgroundColor=none;strokeWidth=1;fontFamily=Verdana;fontSize=12" parent="1" vertex="1">
          <mxGeometry x="820" y="30" width="100" height="35" as="geometry" />
        </mxCell>
        <mxCell id="-loWOBMDPaf_zWbP4MA2-41" value="acquire" style="html=1;verticalAlign=bottom;endArrow=block;rounded=0;entryX=-0.071;entryY=0.281;entryDx=0;entryDy=0;entryPerimeter=0;exitX=0.914;exitY=0.476;exitDx=0;exitDy=0;exitPerimeter=0;" parent="1" edge="1">
          <mxGeometry width="80" relative="1" as="geometry">
            <mxPoint x="459.14" y="288.08000000000004" as="sourcePoint" />
            <mxPoint x="724.29" y="288.42999999999995" as="targetPoint" />
          </mxGeometry>
        </mxCell>
        <mxCell id="-loWOBMDPaf_zWbP4MA2-42" value="&lt;span style=&quot;font-size: 11px&quot;&gt;获取到wake lock期间可防止nfc休眠&lt;/span&gt;" style="shape=note;whiteSpace=wrap;html=1;size=14;verticalAlign=top;align=left;spacingTop=-6;rounded=0;shadow=0;comic=0;labelBackgroundColor=none;strokeWidth=1;fontFamily=Verdana;fontSize=12" parent="1" vertex="1">
          <mxGeometry x="680" y="30" width="100" height="35" as="geometry" />
        </mxCell>
        <mxCell id="-loWOBMDPaf_zWbP4MA2-46" value="release" style="html=1;verticalAlign=bottom;endArrow=block;rounded=0;entryX=-0.071;entryY=0.281;entryDx=0;entryDy=0;entryPerimeter=0;exitX=0.914;exitY=0.476;exitDx=0;exitDy=0;exitPerimeter=0;" parent="1" edge="1">
          <mxGeometry width="80" relative="1" as="geometry">
            <mxPoint x="459.84999999999985" y="345.00000000000006" as="sourcePoint" />
            <mxPoint x="725" y="345.34999999999997" as="targetPoint" />
          </mxGeometry>
        </mxCell>
        <mxCell id="-loWOBMDPaf_zWbP4MA2-47" value="initialize" style="html=1;verticalAlign=bottom;endArrow=block;rounded=0;exitX=0.914;exitY=0.476;exitDx=0;exitDy=0;exitPerimeter=0;" parent="1" target="-loWOBMDPaf_zWbP4MA2-43" edge="1">
          <mxGeometry width="80" relative="1" as="geometry">
            <mxPoint x="459.84999999999985" y="319.66" as="sourcePoint" />
            <mxPoint x="725" y="320.00999999999993" as="targetPoint" />
          </mxGeometry>
        </mxCell>
        <mxCell id="-loWOBMDPaf_zWbP4MA2-48" value="终止watchDog线程" style="html=1;verticalAlign=bottom;endArrow=block;rounded=0;" parent="1" edge="1">
          <mxGeometry width="80" relative="1" as="geometry">
            <mxPoint x="460" y="369.31" as="sourcePoint" />
            <mxPoint x="585" y="369.31" as="targetPoint" />
          </mxGeometry>
        </mxCell>
        <mxCell id="-loWOBMDPaf_zWbP4MA2-50" value="onNfcEnabled" style="html=1;verticalAlign=bottom;endArrow=block;rounded=0;" parent="1" edge="1">
          <mxGeometry width="80" relative="1" as="geometry">
            <mxPoint x="460" y="413" as="sourcePoint" />
            <mxPoint x="1005" y="413" as="targetPoint" />
          </mxGeometry>
        </mxCell>
        <mxCell id="-loWOBMDPaf_zWbP4MA2-51" value="P2pLinkManager" style="shape=umlLifeline;perimeter=lifelinePerimeter;whiteSpace=wrap;html=1;container=1;collapsible=0;recursiveResize=0;outlineConnect=0;rounded=1;shadow=0;comic=0;labelBackgroundColor=none;strokeWidth=1;fontFamily=Verdana;fontSize=12;align=center;" parent="1" vertex="1">
          <mxGeometry x="1100" y="80" width="100" height="580" as="geometry" />
        </mxCell>
        <mxCell id="-loWOBMDPaf_zWbP4MA2-52" value="" style="html=1;points=[];perimeter=orthogonalPerimeter;rounded=0;shadow=0;comic=0;labelBackgroundColor=none;strokeWidth=1;fontFamily=Verdana;fontSize=12;align=center;" parent="-loWOBMDPaf_zWbP4MA2-51" vertex="1">
          <mxGeometry x="45" y="370" width="10" height="50" as="geometry" />
        </mxCell>
        <mxCell id="-loWOBMDPaf_zWbP4MA2-63" value="启动SnepServer、NdefPushServer和HandoverServer" style="shape=note;whiteSpace=wrap;html=1;size=14;verticalAlign=top;align=left;spacingTop=-6;rounded=0;shadow=0;comic=0;labelBackgroundColor=none;strokeWidth=1;fontFamily=Verdana;fontSize=12" parent="1" vertex="1">
          <mxGeometry x="1092.5" y="30" width="115" height="35" as="geometry" />
        </mxCell>
        <mxCell id="-loWOBMDPaf_zWbP4MA2-64" value="根据aid从ese、uicc、hce获取entry，生成原始路由表" style="shape=note;whiteSpace=wrap;html=1;size=14;verticalAlign=top;align=left;spacingTop=-6;rounded=0;shadow=0;comic=0;labelBackgroundColor=none;strokeWidth=1;fontFamily=Verdana;fontSize=12" parent="1" vertex="1">
          <mxGeometry x="960" y="17.5" width="100" height="60" as="geometry" />
        </mxCell>
        <mxCell id="P8vUj3EyvsL8XkM7lRFA-1" value="&lt;font color=&quot;#ff0000&quot;&gt;追溯NfcAdapter.enable()&lt;br&gt;往下层的调用过程&lt;/font&gt;" style="text;html=1;resizable=0;autosize=1;align=center;verticalAlign=middle;points=[];fillColor=none;strokeColor=none;rounded=0;" vertex="1" parent="1">
          <mxGeometry y="220" width="150" height="30" as="geometry" />
        </mxCell>
      </root>
    </mxGraphModel>
  </diagram>
</mxfile>
